<mxfile host="app.diagrams.net" modified="2023-11-30T13:14:20.446Z" agent="Mozilla/5.0 (Macintosh; Intel Mac OS X 10_15_7) AppleWebKit/537.36 (KHTML, like Gecko) Chrome/118.0.0.0 Safari/537.36" etag="0OtjdAbW9SJ1LXMx2ws8" version="22.1.5" type="github">
  <diagram name="Pagina-1" id="jGf_04mg0V8zM4tONkqc">
    <mxGraphModel dx="1116" dy="1036" grid="1" gridSize="10" guides="1" tooltips="1" connect="1" arrows="1" fold="1" page="1" pageScale="1" pageWidth="827" pageHeight="1169" math="0" shadow="0">
      <root>
        <mxCell id="0" />
        <mxCell id="1" parent="0" />
      </root>
    </mxGraphModel>
  </diagram>
</mxfile>
